<mxfile host="app.diagrams.net" agent="Mozilla/5.0 (Windows NT 10.0; Win64; x64) AppleWebKit/537.36 (KHTML, like Gecko) Chrome/131.0.0.0 Safari/537.36 Edg/131.0.0.0" version="24.9.0">
  <diagram id="C5RBs43oDa-KdzZeNtuy" name="Page-1">
    <mxGraphModel dx="1853" dy="561" grid="1" gridSize="10" guides="1" tooltips="1" connect="1" arrows="1" fold="1" page="1" pageScale="1" pageWidth="827" pageHeight="1169" math="0" shadow="0">
      <root>
        <mxCell id="WIyWlLk6GJQsqaUBKTNV-0" />
        <mxCell id="WIyWlLk6GJQsqaUBKTNV-1" parent="WIyWlLk6GJQsqaUBKTNV-0" />
        <mxCell id="mvioNwK95yMqdUQ73LqQ-36" value="" style="swimlane;fontFamily=Sarabun;fontSource=https%3A%2F%2Ffonts.googleapis.com%2Fcss%3Ffamily%3DSarabun;align=left;" parent="WIyWlLk6GJQsqaUBKTNV-1" vertex="1">
          <mxGeometry x="-810" y="70" width="640" height="1960" as="geometry" />
        </mxCell>
        <mxCell id="Z396VhOPNJgzjUTIA-1V-6" style="edgeStyle=orthogonalEdgeStyle;rounded=0;orthogonalLoop=1;jettySize=auto;html=1;" parent="mvioNwK95yMqdUQ73LqQ-36" source="mvioNwK95yMqdUQ73LqQ-35" edge="1">
          <mxGeometry relative="1" as="geometry">
            <mxPoint x="320" y="100" as="targetPoint" />
          </mxGeometry>
        </mxCell>
        <mxCell id="mvioNwK95yMqdUQ73LqQ-35" value="&lt;font data-font-src=&quot;https://fonts.googleapis.com/css?family=Sarabun&quot; face=&quot;Sarabun&quot;&gt;Start&lt;/font&gt;" style="ellipse;whiteSpace=wrap;html=1;" parent="mvioNwK95yMqdUQ73LqQ-36" vertex="1">
          <mxGeometry x="255" y="40" width="130" height="30" as="geometry" />
        </mxCell>
        <mxCell id="mvioNwK95yMqdUQ73LqQ-69" value="&lt;font face=&quot;Sarabun&quot;&gt;End&lt;/font&gt;" style="ellipse;whiteSpace=wrap;html=1;" parent="mvioNwK95yMqdUQ73LqQ-36" vertex="1">
          <mxGeometry x="222" y="1850" width="130" height="30" as="geometry" />
        </mxCell>
        <mxCell id="KWd6vzJIBVsZ286_KXpW-8" style="edgeStyle=orthogonalEdgeStyle;rounded=0;orthogonalLoop=1;jettySize=auto;html=1;" edge="1" parent="mvioNwK95yMqdUQ73LqQ-36" source="KWd6vzJIBVsZ286_KXpW-0">
          <mxGeometry relative="1" as="geometry">
            <mxPoint x="320" y="250" as="targetPoint" />
          </mxGeometry>
        </mxCell>
        <mxCell id="KWd6vzJIBVsZ286_KXpW-0" value="Declare num1, num2, num3,temp" style="rounded=0;whiteSpace=wrap;html=1;" vertex="1" parent="mvioNwK95yMqdUQ73LqQ-36">
          <mxGeometry x="206.25" y="100" width="227.5" height="100" as="geometry" />
        </mxCell>
        <mxCell id="KWd6vzJIBVsZ286_KXpW-9" style="edgeStyle=orthogonalEdgeStyle;rounded=0;orthogonalLoop=1;jettySize=auto;html=1;" edge="1" parent="mvioNwK95yMqdUQ73LqQ-36" source="KWd6vzJIBVsZ286_KXpW-1">
          <mxGeometry relative="1" as="geometry">
            <mxPoint x="315" y="330" as="targetPoint" />
          </mxGeometry>
        </mxCell>
        <mxCell id="KWd6vzJIBVsZ286_KXpW-1" value="Output &quot;Input[1] : &quot;" style="shape=parallelogram;perimeter=parallelogramPerimeter;whiteSpace=wrap;html=1;fixedSize=1;" vertex="1" parent="mvioNwK95yMqdUQ73LqQ-36">
          <mxGeometry x="245" y="250" width="140" height="60" as="geometry" />
        </mxCell>
        <mxCell id="KWd6vzJIBVsZ286_KXpW-11" style="edgeStyle=orthogonalEdgeStyle;rounded=0;orthogonalLoop=1;jettySize=auto;html=1;" edge="1" parent="mvioNwK95yMqdUQ73LqQ-36" source="KWd6vzJIBVsZ286_KXpW-2">
          <mxGeometry relative="1" as="geometry">
            <mxPoint x="305" y="510" as="targetPoint" />
          </mxGeometry>
        </mxCell>
        <mxCell id="KWd6vzJIBVsZ286_KXpW-2" value="Output &quot;Input[2] : &quot;" style="shape=parallelogram;perimeter=parallelogramPerimeter;whiteSpace=wrap;html=1;fixedSize=1;" vertex="1" parent="mvioNwK95yMqdUQ73LqQ-36">
          <mxGeometry x="235" y="420" width="140" height="60" as="geometry" />
        </mxCell>
        <mxCell id="KWd6vzJIBVsZ286_KXpW-14" style="edgeStyle=orthogonalEdgeStyle;rounded=0;orthogonalLoop=1;jettySize=auto;html=1;entryX=0.5;entryY=0;entryDx=0;entryDy=0;" edge="1" parent="mvioNwK95yMqdUQ73LqQ-36" source="KWd6vzJIBVsZ286_KXpW-3" target="KWd6vzJIBVsZ286_KXpW-7">
          <mxGeometry relative="1" as="geometry" />
        </mxCell>
        <mxCell id="KWd6vzJIBVsZ286_KXpW-3" value="Output &quot;Input[3] : &quot;" style="shape=parallelogram;perimeter=parallelogramPerimeter;whiteSpace=wrap;html=1;fixedSize=1;" vertex="1" parent="mvioNwK95yMqdUQ73LqQ-36">
          <mxGeometry x="220" y="600" width="140" height="60" as="geometry" />
        </mxCell>
        <mxCell id="KWd6vzJIBVsZ286_KXpW-10" style="edgeStyle=orthogonalEdgeStyle;rounded=0;orthogonalLoop=1;jettySize=auto;html=1;" edge="1" parent="mvioNwK95yMqdUQ73LqQ-36" source="KWd6vzJIBVsZ286_KXpW-5">
          <mxGeometry relative="1" as="geometry">
            <mxPoint x="305" y="420" as="targetPoint" />
          </mxGeometry>
        </mxCell>
        <mxCell id="KWd6vzJIBVsZ286_KXpW-5" value="Read num1" style="shape=parallelogram;perimeter=parallelogramPerimeter;whiteSpace=wrap;html=1;fixedSize=1;" vertex="1" parent="mvioNwK95yMqdUQ73LqQ-36">
          <mxGeometry x="235" y="330" width="140" height="60" as="geometry" />
        </mxCell>
        <mxCell id="KWd6vzJIBVsZ286_KXpW-12" style="edgeStyle=orthogonalEdgeStyle;rounded=0;orthogonalLoop=1;jettySize=auto;html=1;" edge="1" parent="mvioNwK95yMqdUQ73LqQ-36" source="KWd6vzJIBVsZ286_KXpW-6">
          <mxGeometry relative="1" as="geometry">
            <mxPoint x="300" y="600" as="targetPoint" />
          </mxGeometry>
        </mxCell>
        <mxCell id="KWd6vzJIBVsZ286_KXpW-6" value="Read num2" style="shape=parallelogram;perimeter=parallelogramPerimeter;whiteSpace=wrap;html=1;fixedSize=1;" vertex="1" parent="mvioNwK95yMqdUQ73LqQ-36">
          <mxGeometry x="230" y="510" width="140" height="60" as="geometry" />
        </mxCell>
        <mxCell id="KWd6vzJIBVsZ286_KXpW-19" style="edgeStyle=orthogonalEdgeStyle;rounded=0;orthogonalLoop=1;jettySize=auto;html=1;" edge="1" parent="mvioNwK95yMqdUQ73LqQ-36" source="KWd6vzJIBVsZ286_KXpW-7">
          <mxGeometry relative="1" as="geometry">
            <mxPoint x="290" y="780" as="targetPoint" />
          </mxGeometry>
        </mxCell>
        <mxCell id="KWd6vzJIBVsZ286_KXpW-7" value="Read num3" style="shape=parallelogram;perimeter=parallelogramPerimeter;whiteSpace=wrap;html=1;fixedSize=1;" vertex="1" parent="mvioNwK95yMqdUQ73LqQ-36">
          <mxGeometry x="220" y="690" width="140" height="60" as="geometry" />
        </mxCell>
        <mxCell id="KWd6vzJIBVsZ286_KXpW-16" style="edgeStyle=orthogonalEdgeStyle;rounded=0;orthogonalLoop=1;jettySize=auto;html=1;" edge="1" parent="mvioNwK95yMqdUQ73LqQ-36" source="KWd6vzJIBVsZ286_KXpW-15">
          <mxGeometry relative="1" as="geometry">
            <mxPoint x="292.5" y="950" as="targetPoint" />
          </mxGeometry>
        </mxCell>
        <mxCell id="KWd6vzJIBVsZ286_KXpW-27" style="edgeStyle=orthogonalEdgeStyle;rounded=0;orthogonalLoop=1;jettySize=auto;html=1;entryX=1;entryY=0.5;entryDx=0;entryDy=0;" edge="1" parent="mvioNwK95yMqdUQ73LqQ-36" source="KWd6vzJIBVsZ286_KXpW-15" target="KWd6vzJIBVsZ286_KXpW-26">
          <mxGeometry relative="1" as="geometry">
            <Array as="points">
              <mxPoint x="460" y="835" />
              <mxPoint x="460" y="1070" />
            </Array>
          </mxGeometry>
        </mxCell>
        <mxCell id="KWd6vzJIBVsZ286_KXpW-15" value="num1 &amp;gt; num2 ?&amp;nbsp;" style="rhombus;whiteSpace=wrap;html=1;" vertex="1" parent="mvioNwK95yMqdUQ73LqQ-36">
          <mxGeometry x="237.5" y="780" width="110" height="110" as="geometry" />
        </mxCell>
        <mxCell id="KWd6vzJIBVsZ286_KXpW-18" style="edgeStyle=orthogonalEdgeStyle;rounded=0;orthogonalLoop=1;jettySize=auto;html=1;" edge="1" parent="mvioNwK95yMqdUQ73LqQ-36" source="KWd6vzJIBVsZ286_KXpW-17">
          <mxGeometry relative="1" as="geometry">
            <mxPoint x="292.5" y="1060" as="targetPoint" />
          </mxGeometry>
        </mxCell>
        <mxCell id="KWd6vzJIBVsZ286_KXpW-17" value="temp = num1&amp;nbsp;&lt;div&gt;&amp;nbsp;num1 = num2&amp;nbsp;&lt;/div&gt;&lt;div&gt;num2 = temp&lt;/div&gt;" style="rounded=0;whiteSpace=wrap;html=1;" vertex="1" parent="mvioNwK95yMqdUQ73LqQ-36">
          <mxGeometry x="225" y="950" width="135" height="60" as="geometry" />
        </mxCell>
        <mxCell id="KWd6vzJIBVsZ286_KXpW-31" style="edgeStyle=orthogonalEdgeStyle;rounded=0;orthogonalLoop=1;jettySize=auto;html=1;" edge="1" parent="mvioNwK95yMqdUQ73LqQ-36" source="KWd6vzJIBVsZ286_KXpW-21">
          <mxGeometry relative="1" as="geometry">
            <mxPoint x="292" y="1270" as="targetPoint" />
          </mxGeometry>
        </mxCell>
        <mxCell id="KWd6vzJIBVsZ286_KXpW-44" style="edgeStyle=orthogonalEdgeStyle;rounded=0;orthogonalLoop=1;jettySize=auto;html=1;entryX=1;entryY=0.5;entryDx=0;entryDy=0;" edge="1" parent="mvioNwK95yMqdUQ73LqQ-36" source="KWd6vzJIBVsZ286_KXpW-21" target="KWd6vzJIBVsZ286_KXpW-38">
          <mxGeometry relative="1" as="geometry">
            <Array as="points">
              <mxPoint x="420" y="1175" />
              <mxPoint x="420" y="1370" />
            </Array>
          </mxGeometry>
        </mxCell>
        <mxCell id="KWd6vzJIBVsZ286_KXpW-21" value="num1&amp;nbsp; &amp;gt; num3 ?" style="rhombus;whiteSpace=wrap;html=1;" vertex="1" parent="mvioNwK95yMqdUQ73LqQ-36">
          <mxGeometry x="237" y="1120" width="110" height="110" as="geometry" />
        </mxCell>
        <mxCell id="KWd6vzJIBVsZ286_KXpW-40" style="edgeStyle=orthogonalEdgeStyle;rounded=0;orthogonalLoop=1;jettySize=auto;html=1;" edge="1" parent="mvioNwK95yMqdUQ73LqQ-36" source="KWd6vzJIBVsZ286_KXpW-23">
          <mxGeometry relative="1" as="geometry">
            <mxPoint x="290" y="1360" as="targetPoint" />
          </mxGeometry>
        </mxCell>
        <mxCell id="KWd6vzJIBVsZ286_KXpW-23" value="temp = num1&amp;nbsp;&lt;div&gt;&amp;nbsp;num1 = num3&amp;nbsp;&lt;/div&gt;&lt;div&gt;num3 = temp&lt;/div&gt;" style="rounded=0;whiteSpace=wrap;html=1;" vertex="1" parent="mvioNwK95yMqdUQ73LqQ-36">
          <mxGeometry x="222.5" y="1270" width="135" height="60" as="geometry" />
        </mxCell>
        <mxCell id="KWd6vzJIBVsZ286_KXpW-24" value="Yes" style="text;html=1;align=center;verticalAlign=middle;resizable=0;points=[];autosize=1;strokeColor=none;fillColor=none;" vertex="1" parent="mvioNwK95yMqdUQ73LqQ-36">
          <mxGeometry x="237.5" y="890" width="40" height="30" as="geometry" />
        </mxCell>
        <mxCell id="KWd6vzJIBVsZ286_KXpW-25" value="No" style="text;html=1;align=center;verticalAlign=middle;resizable=0;points=[];autosize=1;strokeColor=none;fillColor=none;" vertex="1" parent="mvioNwK95yMqdUQ73LqQ-36">
          <mxGeometry x="345" y="770" width="40" height="30" as="geometry" />
        </mxCell>
        <mxCell id="KWd6vzJIBVsZ286_KXpW-30" style="edgeStyle=orthogonalEdgeStyle;rounded=0;orthogonalLoop=1;jettySize=auto;html=1;" edge="1" parent="mvioNwK95yMqdUQ73LqQ-36" source="KWd6vzJIBVsZ286_KXpW-26">
          <mxGeometry relative="1" as="geometry">
            <mxPoint x="292.5" y="1120" as="targetPoint" />
          </mxGeometry>
        </mxCell>
        <mxCell id="KWd6vzJIBVsZ286_KXpW-26" value="" style="ellipse;whiteSpace=wrap;html=1;aspect=fixed;" vertex="1" parent="mvioNwK95yMqdUQ73LqQ-36">
          <mxGeometry x="282.5" y="1060" width="20" height="20" as="geometry" />
        </mxCell>
        <mxCell id="KWd6vzJIBVsZ286_KXpW-47" style="edgeStyle=orthogonalEdgeStyle;rounded=0;orthogonalLoop=1;jettySize=auto;html=1;entryX=0.5;entryY=0;entryDx=0;entryDy=0;" edge="1" parent="mvioNwK95yMqdUQ73LqQ-36" source="KWd6vzJIBVsZ286_KXpW-33" target="KWd6vzJIBVsZ286_KXpW-35">
          <mxGeometry relative="1" as="geometry" />
        </mxCell>
        <mxCell id="KWd6vzJIBVsZ286_KXpW-50" style="edgeStyle=orthogonalEdgeStyle;rounded=0;orthogonalLoop=1;jettySize=auto;html=1;entryX=1;entryY=0.5;entryDx=0;entryDy=0;" edge="1" parent="mvioNwK95yMqdUQ73LqQ-36" source="KWd6vzJIBVsZ286_KXpW-33" target="KWd6vzJIBVsZ286_KXpW-45">
          <mxGeometry relative="1" as="geometry">
            <Array as="points">
              <mxPoint x="420" y="1485" />
              <mxPoint x="420" y="1700" />
            </Array>
          </mxGeometry>
        </mxCell>
        <mxCell id="KWd6vzJIBVsZ286_KXpW-33" value="num2&amp;nbsp; &amp;gt; num3 ?" style="rhombus;whiteSpace=wrap;html=1;" vertex="1" parent="mvioNwK95yMqdUQ73LqQ-36">
          <mxGeometry x="235" y="1430" width="110" height="110" as="geometry" />
        </mxCell>
        <mxCell id="KWd6vzJIBVsZ286_KXpW-49" style="edgeStyle=orthogonalEdgeStyle;rounded=0;orthogonalLoop=1;jettySize=auto;html=1;" edge="1" parent="mvioNwK95yMqdUQ73LqQ-36" source="KWd6vzJIBVsZ286_KXpW-35">
          <mxGeometry relative="1" as="geometry">
            <mxPoint x="289.5" y="1689.9999999999998" as="targetPoint" />
          </mxGeometry>
        </mxCell>
        <mxCell id="KWd6vzJIBVsZ286_KXpW-35" value="temp = num2&amp;nbsp;&lt;div&gt;&amp;nbsp;num2 = num3&amp;nbsp;&lt;/div&gt;&lt;div&gt;num3 = temp&lt;/div&gt;" style="rounded=0;whiteSpace=wrap;html=1;" vertex="1" parent="mvioNwK95yMqdUQ73LqQ-36">
          <mxGeometry x="222" y="1590" width="135" height="60" as="geometry" />
        </mxCell>
        <mxCell id="KWd6vzJIBVsZ286_KXpW-37" style="edgeStyle=orthogonalEdgeStyle;rounded=0;orthogonalLoop=1;jettySize=auto;html=1;" edge="1" parent="mvioNwK95yMqdUQ73LqQ-36" source="KWd6vzJIBVsZ286_KXpW-36">
          <mxGeometry relative="1" as="geometry">
            <mxPoint x="289.5" y="1850" as="targetPoint" />
          </mxGeometry>
        </mxCell>
        <mxCell id="KWd6vzJIBVsZ286_KXpW-36" value="Output num1 num2 num3" style="shape=parallelogram;perimeter=parallelogramPerimeter;whiteSpace=wrap;html=1;fixedSize=1;" vertex="1" parent="mvioNwK95yMqdUQ73LqQ-36">
          <mxGeometry x="182" y="1750" width="215" height="60" as="geometry" />
        </mxCell>
        <mxCell id="KWd6vzJIBVsZ286_KXpW-39" style="edgeStyle=orthogonalEdgeStyle;rounded=0;orthogonalLoop=1;jettySize=auto;html=1;" edge="1" parent="mvioNwK95yMqdUQ73LqQ-36" source="KWd6vzJIBVsZ286_KXpW-38">
          <mxGeometry relative="1" as="geometry">
            <mxPoint x="291.5" y="1430" as="targetPoint" />
          </mxGeometry>
        </mxCell>
        <mxCell id="KWd6vzJIBVsZ286_KXpW-38" value="" style="ellipse;whiteSpace=wrap;html=1;aspect=fixed;" vertex="1" parent="mvioNwK95yMqdUQ73LqQ-36">
          <mxGeometry x="281.5" y="1360" width="20" height="20" as="geometry" />
        </mxCell>
        <mxCell id="KWd6vzJIBVsZ286_KXpW-51" style="edgeStyle=orthogonalEdgeStyle;rounded=0;orthogonalLoop=1;jettySize=auto;html=1;" edge="1" parent="mvioNwK95yMqdUQ73LqQ-36" source="KWd6vzJIBVsZ286_KXpW-45">
          <mxGeometry relative="1" as="geometry">
            <mxPoint x="290" y="1750" as="targetPoint" />
          </mxGeometry>
        </mxCell>
        <mxCell id="KWd6vzJIBVsZ286_KXpW-45" value="" style="ellipse;whiteSpace=wrap;html=1;aspect=fixed;" vertex="1" parent="mvioNwK95yMqdUQ73LqQ-36">
          <mxGeometry x="280" y="1690" width="20" height="20" as="geometry" />
        </mxCell>
      </root>
    </mxGraphModel>
  </diagram>
</mxfile>
